<mxfile host="app.diagrams.net" modified="2020-09-16T10:08:50.829Z" agent="5.0 (X11)" etag="vJBuePRn5rLX_pzdHvwm" version="13.6.10" type="github" pages="2">
  <diagram id="DHdckU9PqwneqFOeB6mQ" name="Page-1">
    <mxGraphModel dx="1422" dy="803" grid="1" gridSize="10" guides="1" tooltips="1" connect="1" arrows="1" fold="1" page="1" pageScale="1" pageWidth="850" pageHeight="1100" math="0" shadow="0">
      <root>
        <mxCell id="0" />
        <mxCell id="1" parent="0" />
        <mxCell id="vv2D7ObIOOiOLytHJdmk-47" value="" style="rounded=0;whiteSpace=wrap;html=1;dashed=1;fillColor=none;strokeWidth=3;strokeColor=#FF0000;" parent="1" vertex="1">
          <mxGeometry x="207.5" y="750" width="275" height="90" as="geometry" />
        </mxCell>
        <mxCell id="vv2D7ObIOOiOLytHJdmk-5" style="edgeStyle=orthogonalEdgeStyle;rounded=0;orthogonalLoop=1;jettySize=auto;html=1;exitX=0.5;exitY=1;exitDx=0;exitDy=0;entryX=0.5;entryY=0;entryDx=0;entryDy=0;" parent="1" source="vv2D7ObIOOiOLytHJdmk-1" target="Z2VF36bLz55xeXFlXtNX-1" edge="1">
          <mxGeometry relative="1" as="geometry" />
        </mxCell>
        <mxCell id="vv2D7ObIOOiOLytHJdmk-1" value="&lt;div&gt;executeall.sh&lt;/div&gt;" style="rounded=0;whiteSpace=wrap;html=1;" parent="1" vertex="1">
          <mxGeometry x="440" y="120" width="120" height="60" as="geometry" />
        </mxCell>
        <mxCell id="vv2D7ObIOOiOLytHJdmk-8" style="edgeStyle=orthogonalEdgeStyle;rounded=0;orthogonalLoop=1;jettySize=auto;html=1;exitX=0.25;exitY=0.5;exitDx=0;exitDy=0;exitPerimeter=0;entryX=0.494;entryY=0.2;entryDx=0;entryDy=0;entryPerimeter=0;" parent="1" source="vv2D7ObIOOiOLytHJdmk-3" target="vv2D7ObIOOiOLytHJdmk-13" edge="1">
          <mxGeometry relative="1" as="geometry">
            <mxPoint x="370" y="330" as="targetPoint" />
          </mxGeometry>
        </mxCell>
        <mxCell id="vv2D7ObIOOiOLytHJdmk-9" style="edgeStyle=orthogonalEdgeStyle;rounded=0;orthogonalLoop=1;jettySize=auto;html=1;exitX=0.75;exitY=0.5;exitDx=0;exitDy=0;exitPerimeter=0;entryX=0.488;entryY=0.2;entryDx=0;entryDy=0;entryPerimeter=0;" parent="1" source="vv2D7ObIOOiOLytHJdmk-3" target="vv2D7ObIOOiOLytHJdmk-21" edge="1">
          <mxGeometry relative="1" as="geometry">
            <mxPoint x="580" y="340" as="targetPoint" />
          </mxGeometry>
        </mxCell>
        <mxCell id="vv2D7ObIOOiOLytHJdmk-3" value="" style="shape=line;html=1;strokeWidth=6;strokeColor=#ff0000;" parent="1" vertex="1">
          <mxGeometry x="410" y="380" width="170" height="10" as="geometry" />
        </mxCell>
        <mxCell id="vv2D7ObIOOiOLytHJdmk-16" style="edgeStyle=orthogonalEdgeStyle;rounded=0;orthogonalLoop=1;jettySize=auto;html=1;exitX=0.25;exitY=0.5;exitDx=0;exitDy=0;exitPerimeter=0;entryX=0.5;entryY=0;entryDx=0;entryDy=0;" parent="1" source="vv2D7ObIOOiOLytHJdmk-13" target="vv2D7ObIOOiOLytHJdmk-14" edge="1">
          <mxGeometry relative="1" as="geometry">
            <mxPoint x="270" y="500" as="targetPoint" />
          </mxGeometry>
        </mxCell>
        <mxCell id="vv2D7ObIOOiOLytHJdmk-18" style="edgeStyle=orthogonalEdgeStyle;rounded=0;orthogonalLoop=1;jettySize=auto;html=1;exitX=0.75;exitY=0.5;exitDx=0;exitDy=0;exitPerimeter=0;entryX=0.5;entryY=0;entryDx=0;entryDy=0;" parent="1" source="vv2D7ObIOOiOLytHJdmk-13" target="vv2D7ObIOOiOLytHJdmk-17" edge="1">
          <mxGeometry relative="1" as="geometry" />
        </mxCell>
        <mxCell id="vv2D7ObIOOiOLytHJdmk-13" value="" style="shape=line;html=1;strokeWidth=6;strokeColor=#ff0000;" parent="1" vertex="1">
          <mxGeometry x="260" y="450" width="170" height="10" as="geometry" />
        </mxCell>
        <mxCell id="vv2D7ObIOOiOLytHJdmk-31" style="edgeStyle=orthogonalEdgeStyle;rounded=0;orthogonalLoop=1;jettySize=auto;html=1;exitX=0.5;exitY=1;exitDx=0;exitDy=0;entryX=0.25;entryY=0.5;entryDx=0;entryDy=0;entryPerimeter=0;" parent="1" source="vv2D7ObIOOiOLytHJdmk-14" target="vv2D7ObIOOiOLytHJdmk-30" edge="1">
          <mxGeometry relative="1" as="geometry" />
        </mxCell>
        <mxCell id="vv2D7ObIOOiOLytHJdmk-14" value="ycsbplus.sh" style="html=1;" parent="1" vertex="1">
          <mxGeometry x="190" y="550" width="150" height="50" as="geometry" />
        </mxCell>
        <mxCell id="vv2D7ObIOOiOLytHJdmk-32" style="edgeStyle=orthogonalEdgeStyle;rounded=0;orthogonalLoop=1;jettySize=auto;html=1;exitX=0.5;exitY=1;exitDx=0;exitDy=0;entryX=0.75;entryY=0.5;entryDx=0;entryDy=0;entryPerimeter=0;" parent="1" source="vv2D7ObIOOiOLytHJdmk-17" target="vv2D7ObIOOiOLytHJdmk-30" edge="1">
          <mxGeometry relative="1" as="geometry" />
        </mxCell>
        <mxCell id="vv2D7ObIOOiOLytHJdmk-17" value="smallbank.sh" style="html=1;" parent="1" vertex="1">
          <mxGeometry x="360" y="550" width="120" height="50" as="geometry" />
        </mxCell>
        <mxCell id="vv2D7ObIOOiOLytHJdmk-27" style="edgeStyle=orthogonalEdgeStyle;rounded=0;orthogonalLoop=1;jettySize=auto;html=1;exitX=0.25;exitY=0.5;exitDx=0;exitDy=0;exitPerimeter=0;entryX=0.5;entryY=0;entryDx=0;entryDy=0;" parent="1" source="vv2D7ObIOOiOLytHJdmk-21" target="vv2D7ObIOOiOLytHJdmk-24" edge="1">
          <mxGeometry relative="1" as="geometry" />
        </mxCell>
        <mxCell id="vv2D7ObIOOiOLytHJdmk-28" style="edgeStyle=orthogonalEdgeStyle;rounded=0;orthogonalLoop=1;jettySize=auto;html=1;exitX=0.75;exitY=0.5;exitDx=0;exitDy=0;exitPerimeter=0;entryX=0.5;entryY=0;entryDx=0;entryDy=0;" parent="1" source="vv2D7ObIOOiOLytHJdmk-21" target="vv2D7ObIOOiOLytHJdmk-26" edge="1">
          <mxGeometry relative="1" as="geometry" />
        </mxCell>
        <mxCell id="vv2D7ObIOOiOLytHJdmk-21" value="" style="shape=line;html=1;strokeWidth=6;strokeColor=#ff0000;" parent="1" vertex="1">
          <mxGeometry x="570" y="450" width="170" height="10" as="geometry" />
        </mxCell>
        <mxCell id="vv2D7ObIOOiOLytHJdmk-24" value="ioheavy.sh" style="html=1;" parent="1" vertex="1">
          <mxGeometry x="550" y="550" width="90" height="50" as="geometry" />
        </mxCell>
        <mxCell id="vv2D7ObIOOiOLytHJdmk-26" value="cpuheavy.sh" style="html=1;" parent="1" vertex="1">
          <mxGeometry x="670" y="550" width="90" height="50" as="geometry" />
        </mxCell>
        <mxCell id="vv2D7ObIOOiOLytHJdmk-33" style="edgeStyle=orthogonalEdgeStyle;rounded=0;orthogonalLoop=1;jettySize=auto;html=1;entryX=0.5;entryY=0;entryDx=0;entryDy=0;" parent="1" source="vv2D7ObIOOiOLytHJdmk-30" target="vv2D7ObIOOiOLytHJdmk-34" edge="1">
          <mxGeometry relative="1" as="geometry" />
        </mxCell>
        <mxCell id="vv2D7ObIOOiOLytHJdmk-30" value="" style="shape=line;html=1;strokeWidth=6;strokeColor=#ff0000;" parent="1" vertex="1">
          <mxGeometry x="260" y="640" width="170" height="10" as="geometry" />
        </mxCell>
        <mxCell id="vv2D7ObIOOiOLytHJdmk-43" style="edgeStyle=orthogonalEdgeStyle;rounded=0;orthogonalLoop=1;jettySize=auto;html=1;exitX=0.5;exitY=1;exitDx=0;exitDy=0;entryX=0.5;entryY=0.4;entryDx=0;entryDy=0;entryPerimeter=0;" parent="1" source="vv2D7ObIOOiOLytHJdmk-34" target="vv2D7ObIOOiOLytHJdmk-42" edge="1">
          <mxGeometry relative="1" as="geometry" />
        </mxCell>
        <mxCell id="vv2D7ObIOOiOLytHJdmk-34" value="driver" style="html=1;" parent="1" vertex="1">
          <mxGeometry x="285" y="770" width="120" height="50" as="geometry" />
        </mxCell>
        <mxCell id="vv2D7ObIOOiOLytHJdmk-44" style="edgeStyle=orthogonalEdgeStyle;rounded=0;orthogonalLoop=1;jettySize=auto;html=1;exitX=0.25;exitY=0.5;exitDx=0;exitDy=0;exitPerimeter=0;entryX=0.5;entryY=0;entryDx=0;entryDy=0;" parent="1" source="vv2D7ObIOOiOLytHJdmk-42" target="vv2D7ObIOOiOLytHJdmk-1" edge="1">
          <mxGeometry relative="1" as="geometry">
            <mxPoint x="210" y="480" as="targetPoint" />
            <Array as="points">
              <mxPoint x="302" y="920" />
              <mxPoint x="130" y="920" />
              <mxPoint x="130" y="80" />
              <mxPoint x="500" y="80" />
            </Array>
          </mxGeometry>
        </mxCell>
        <mxCell id="vv2D7ObIOOiOLytHJdmk-50" style="edgeStyle=orthogonalEdgeStyle;rounded=0;orthogonalLoop=1;jettySize=auto;html=1;exitX=0.75;exitY=0.5;exitDx=0;exitDy=0;exitPerimeter=0;entryX=0.25;entryY=0;entryDx=0;entryDy=0;" parent="1" source="vv2D7ObIOOiOLytHJdmk-42" target="vv2D7ObIOOiOLytHJdmk-48" edge="1">
          <mxGeometry relative="1" as="geometry">
            <Array as="points">
              <mxPoint x="388" y="920" />
              <mxPoint x="470" y="920" />
            </Array>
          </mxGeometry>
        </mxCell>
        <mxCell id="vv2D7ObIOOiOLytHJdmk-42" value="" style="shape=line;html=1;strokeWidth=6;strokeColor=#ff0000;" parent="1" vertex="1">
          <mxGeometry x="260" y="880" width="170" height="10" as="geometry" />
        </mxCell>
        <mxCell id="vv2D7ObIOOiOLytHJdmk-48" value="parser.py" style="html=1;" parent="1" vertex="1">
          <mxGeometry x="440" y="950" width="120" height="50" as="geometry" />
        </mxCell>
        <mxCell id="vv2D7ObIOOiOLytHJdmk-51" value="&lt;div align=&quot;left&quot;&gt;Limited&lt;/div&gt;&lt;div align=&quot;left&quot;&gt;Execution&lt;br&gt;&lt;/div&gt;" style="text;html=1;strokeColor=none;fillColor=none;align=left;verticalAlign=middle;whiteSpace=wrap;rounded=0;dashed=1;" parent="1" vertex="1">
          <mxGeometry x="208.5" y="813" width="40" height="20" as="geometry" />
        </mxCell>
        <mxCell id="vv2D7ObIOOiOLytHJdmk-55" style="edgeStyle=orthogonalEdgeStyle;rounded=0;orthogonalLoop=1;jettySize=auto;html=1;exitX=0;exitY=0;exitDx=100;exitDy=42;exitPerimeter=0;entryX=0;entryY=0.5;entryDx=0;entryDy=0;dashed=1;endArrow=none;endFill=0;" parent="1" source="vv2D7ObIOOiOLytHJdmk-52" target="vv2D7ObIOOiOLytHJdmk-14" edge="1">
          <mxGeometry relative="1" as="geometry" />
        </mxCell>
        <mxCell id="vv2D7ObIOOiOLytHJdmk-52" value="&lt;div&gt;&lt;br&gt;&lt;/div&gt;&lt;div&gt;&amp;nbsp;- ycsb&lt;/div&gt;&lt;div&gt;&amp;nbsp;- donothing&lt;br&gt;&lt;/div&gt;" style="shape=note;whiteSpace=wrap;html=1;size=14;verticalAlign=top;align=left;spacingTop=-6;strokeWidth=1;fillColor=none;" parent="1" vertex="1">
          <mxGeometry x="10" y="533" width="100" height="70" as="geometry" />
        </mxCell>
        <mxCell id="Z2VF36bLz55xeXFlXtNX-2" style="edgeStyle=orthogonalEdgeStyle;rounded=0;orthogonalLoop=1;jettySize=auto;html=1;exitX=0.5;exitY=1;exitDx=0;exitDy=0;entryX=0.529;entryY=0.3;entryDx=0;entryDy=0;entryPerimeter=0;" parent="1" source="Z2VF36bLz55xeXFlXtNX-1" target="vv2D7ObIOOiOLytHJdmk-3" edge="1">
          <mxGeometry relative="1" as="geometry" />
        </mxCell>
        <mxCell id="Z2VF36bLz55xeXFlXtNX-1" value="startbenchmark.sh" style="html=1;" parent="1" vertex="1">
          <mxGeometry x="425" y="270" width="150" height="50" as="geometry" />
        </mxCell>
        <mxCell id="Z2VF36bLz55xeXFlXtNX-6" value="txrange.sh" style="html=1;" parent="1" vertex="1">
          <mxGeometry x="270" y="130" width="150" height="50" as="geometry" />
        </mxCell>
      </root>
    </mxGraphModel>
  </diagram>
  <diagram id="0qhV7P3z4q3oQxWVh532" name="Page-2">
    <mxGraphModel dx="1673" dy="945" grid="1" gridSize="10" guides="1" tooltips="1" connect="1" arrows="1" fold="1" page="1" pageScale="1" pageWidth="850" pageHeight="1100" math="0" shadow="0">
      <root>
        <mxCell id="tWrkvSslU7-2X-qWNk3D-0" />
        <mxCell id="tWrkvSslU7-2X-qWNk3D-1" parent="tWrkvSslU7-2X-qWNk3D-0" />
        <mxCell id="5_4g8bxJziUNSMfznbgL-0" value="" style="rounded=0;whiteSpace=wrap;html=1;dashed=1;fillColor=none;strokeWidth=3;strokeColor=#FF0000;" vertex="1" parent="tWrkvSslU7-2X-qWNk3D-1">
          <mxGeometry x="160" y="580" width="350" height="260" as="geometry" />
        </mxCell>
        <mxCell id="5_4g8bxJziUNSMfznbgL-1" style="edgeStyle=orthogonalEdgeStyle;rounded=0;orthogonalLoop=1;jettySize=auto;html=1;exitX=0.25;exitY=0.5;exitDx=0;exitDy=0;entryX=0.5;entryY=0;entryDx=0;entryDy=0;exitPerimeter=0;" edge="1" parent="tWrkvSslU7-2X-qWNk3D-1" source="5_4g8bxJziUNSMfznbgL-64" target="5_4g8bxJziUNSMfznbgL-30">
          <mxGeometry relative="1" as="geometry">
            <Array as="points">
              <mxPoint x="458" y="290" />
              <mxPoint x="292" y="290" />
            </Array>
          </mxGeometry>
        </mxCell>
        <mxCell id="5_4g8bxJziUNSMfznbgL-35" style="edgeStyle=orthogonalEdgeStyle;rounded=0;orthogonalLoop=1;jettySize=auto;html=1;exitX=0.75;exitY=0.5;exitDx=0;exitDy=0;exitPerimeter=0;" edge="1" parent="tWrkvSslU7-2X-qWNk3D-1" source="5_4g8bxJziUNSMfznbgL-64" target="5_4g8bxJziUNSMfznbgL-32">
          <mxGeometry relative="1" as="geometry">
            <Array as="points">
              <mxPoint x="543" y="290" />
              <mxPoint x="615" y="290" />
            </Array>
          </mxGeometry>
        </mxCell>
        <mxCell id="5_4g8bxJziUNSMfznbgL-66" style="edgeStyle=orthogonalEdgeStyle;rounded=0;orthogonalLoop=1;jettySize=auto;html=1;exitX=0.5;exitY=1;exitDx=0;exitDy=0;entryX=0.502;entryY=0.359;entryDx=0;entryDy=0;entryPerimeter=0;" edge="1" parent="tWrkvSslU7-2X-qWNk3D-1" source="5_4g8bxJziUNSMfznbgL-2" target="5_4g8bxJziUNSMfznbgL-64">
          <mxGeometry relative="1" as="geometry" />
        </mxCell>
        <mxCell id="5_4g8bxJziUNSMfznbgL-2" value="&lt;div&gt;executeall.sh&lt;/div&gt;" style="rounded=0;whiteSpace=wrap;html=1;fillColor=#ffe6cc;strokeColor=#d79b00;" vertex="1" parent="tWrkvSslU7-2X-qWNk3D-1">
          <mxGeometry x="440" y="165" width="120" height="50" as="geometry" />
        </mxCell>
        <mxCell id="5_4g8bxJziUNSMfznbgL-37" style="edgeStyle=orthogonalEdgeStyle;rounded=0;orthogonalLoop=1;jettySize=auto;html=1;exitX=0.507;exitY=0.533;exitDx=0;exitDy=0;exitPerimeter=0;entryX=0.5;entryY=0;entryDx=0;entryDy=0;" edge="1" parent="tWrkvSslU7-2X-qWNk3D-1" source="5_4g8bxJziUNSMfznbgL-5" target="5_4g8bxJziUNSMfznbgL-33">
          <mxGeometry relative="1" as="geometry" />
        </mxCell>
        <mxCell id="5_4g8bxJziUNSMfznbgL-5" value="" style="shape=line;html=1;strokeWidth=6;strokeColor=#ff0000;" vertex="1" parent="tWrkvSslU7-2X-qWNk3D-1">
          <mxGeometry x="250" y="440" width="170" height="10" as="geometry" />
        </mxCell>
        <mxCell id="5_4g8bxJziUNSMfznbgL-13" style="edgeStyle=orthogonalEdgeStyle;rounded=0;orthogonalLoop=1;jettySize=auto;html=1;exitX=0.25;exitY=0.5;exitDx=0;exitDy=0;exitPerimeter=0;entryX=0.5;entryY=0;entryDx=0;entryDy=0;" edge="1" parent="tWrkvSslU7-2X-qWNk3D-1" source="5_4g8bxJziUNSMfznbgL-15" target="5_4g8bxJziUNSMfznbgL-16">
          <mxGeometry relative="1" as="geometry" />
        </mxCell>
        <mxCell id="5_4g8bxJziUNSMfznbgL-14" style="edgeStyle=orthogonalEdgeStyle;rounded=0;orthogonalLoop=1;jettySize=auto;html=1;exitX=0.75;exitY=0.5;exitDx=0;exitDy=0;exitPerimeter=0;entryX=0.5;entryY=0;entryDx=0;entryDy=0;" edge="1" parent="tWrkvSslU7-2X-qWNk3D-1" source="5_4g8bxJziUNSMfznbgL-15" target="5_4g8bxJziUNSMfznbgL-17">
          <mxGeometry relative="1" as="geometry" />
        </mxCell>
        <mxCell id="5_4g8bxJziUNSMfznbgL-15" value="" style="shape=line;html=1;strokeWidth=6;strokeColor=#ff0000;" vertex="1" parent="tWrkvSslU7-2X-qWNk3D-1">
          <mxGeometry x="570" y="580" width="170" height="10" as="geometry" />
        </mxCell>
        <mxCell id="5_4g8bxJziUNSMfznbgL-16" value="&lt;div&gt;IOHeavy&lt;/div&gt;&lt;div&gt;Query&lt;/div&gt;" style="shape=hexagon;perimeter=hexagonPerimeter2;whiteSpace=wrap;html=1;fixedSize=1;fontFamily=Helvetica;fontSize=12;align=center;strokeColor=#d6b656;fillColor=#fff2cc;" vertex="1" parent="tWrkvSslU7-2X-qWNk3D-1">
          <mxGeometry x="530" y="715" width="110" height="50" as="geometry" />
        </mxCell>
        <mxCell id="5_4g8bxJziUNSMfznbgL-17" value="&lt;div&gt;CPUHeavy&lt;/div&gt;&lt;div&gt;Query&lt;/div&gt;" style="shape=hexagon;perimeter=hexagonPerimeter2;whiteSpace=wrap;html=1;fixedSize=1;fontFamily=Helvetica;fontSize=12;align=center;strokeColor=#d6b656;fillColor=#fff2cc;" vertex="1" parent="tWrkvSslU7-2X-qWNk3D-1">
          <mxGeometry x="670" y="715" width="110" height="50" as="geometry" />
        </mxCell>
        <mxCell id="5_4g8bxJziUNSMfznbgL-46" style="edgeStyle=orthogonalEdgeStyle;rounded=0;orthogonalLoop=1;jettySize=auto;html=1;exitX=0.5;exitY=1;exitDx=0;exitDy=0;entryX=0.499;entryY=0.334;entryDx=0;entryDy=0;entryPerimeter=0;" edge="1" parent="tWrkvSslU7-2X-qWNk3D-1" source="5_4g8bxJziUNSMfznbgL-21" target="5_4g8bxJziUNSMfznbgL-43">
          <mxGeometry relative="1" as="geometry" />
        </mxCell>
        <mxCell id="5_4g8bxJziUNSMfznbgL-21" value="driver" style="rounded=1;whiteSpace=wrap;html=1;fontFamily=Helvetica;fontSize=12;fontColor=#000000;align=center;strokeColor=#000000;fillColor=#ffffff;" vertex="1" parent="tWrkvSslU7-2X-qWNk3D-1">
          <mxGeometry x="275" y="600" width="120" height="50" as="geometry" />
        </mxCell>
        <mxCell id="5_4g8bxJziUNSMfznbgL-60" style="edgeStyle=orthogonalEdgeStyle;rounded=0;orthogonalLoop=1;jettySize=auto;html=1;entryX=0.5;entryY=0.34;entryDx=0;entryDy=0;entryPerimeter=0;exitX=0.5;exitY=0.665;exitDx=0;exitDy=0;exitPerimeter=0;" edge="1" parent="tWrkvSslU7-2X-qWNk3D-1" source="5_4g8bxJziUNSMfznbgL-24" target="5_4g8bxJziUNSMfznbgL-59">
          <mxGeometry relative="1" as="geometry" />
        </mxCell>
        <mxCell id="5_4g8bxJziUNSMfznbgL-24" value="" style="shape=line;html=1;strokeWidth=6;strokeColor=#ff0000;" vertex="1" parent="tWrkvSslU7-2X-qWNk3D-1">
          <mxGeometry x="250" y="811" width="170" height="10" as="geometry" />
        </mxCell>
        <mxCell id="5_4g8bxJziUNSMfznbgL-25" value="parser.py" style="html=1;" vertex="1" parent="tWrkvSslU7-2X-qWNk3D-1">
          <mxGeometry x="380" y="980" width="120" height="50" as="geometry" />
        </mxCell>
        <mxCell id="5_4g8bxJziUNSMfznbgL-26" value="&lt;div align=&quot;left&quot;&gt;Limited&lt;/div&gt;&lt;div align=&quot;left&quot;&gt;Execution&lt;br&gt;&lt;/div&gt;" style="text;html=1;strokeColor=none;fillColor=none;align=left;verticalAlign=middle;whiteSpace=wrap;rounded=0;dashed=1;" vertex="1" parent="tWrkvSslU7-2X-qWNk3D-1">
          <mxGeometry x="166" y="811" width="40" height="20" as="geometry" />
        </mxCell>
        <mxCell id="5_4g8bxJziUNSMfznbgL-29" style="edgeStyle=orthogonalEdgeStyle;rounded=0;orthogonalLoop=1;jettySize=auto;html=1;exitX=0.5;exitY=1;exitDx=0;exitDy=0;entryX=0.5;entryY=0;entryDx=0;entryDy=0;" edge="1" parent="tWrkvSslU7-2X-qWNk3D-1" source="5_4g8bxJziUNSMfznbgL-33" target="5_4g8bxJziUNSMfznbgL-21">
          <mxGeometry relative="1" as="geometry">
            <mxPoint x="346.53" y="583.5899999999999" as="targetPoint" />
          </mxGeometry>
        </mxCell>
        <mxCell id="5_4g8bxJziUNSMfznbgL-63" style="edgeStyle=orthogonalEdgeStyle;rounded=0;orthogonalLoop=1;jettySize=auto;html=1;exitX=0.5;exitY=1;exitDx=0;exitDy=0;entryX=0.25;entryY=0.5;entryDx=0;entryDy=0;entryPerimeter=0;" edge="1" parent="tWrkvSslU7-2X-qWNk3D-1" source="5_4g8bxJziUNSMfznbgL-30" target="5_4g8bxJziUNSMfznbgL-5">
          <mxGeometry relative="1" as="geometry" />
        </mxCell>
        <mxCell id="5_4g8bxJziUNSMfznbgL-30" value="multikvstore.sh" style="html=1;" vertex="1" parent="tWrkvSslU7-2X-qWNk3D-1">
          <mxGeometry x="217" y="310" width="150" height="50" as="geometry" />
        </mxCell>
        <mxCell id="5_4g8bxJziUNSMfznbgL-31" value="txrange.sh" style="html=1;fillColor=#ffe6cc;strokeColor=#d79b00;" vertex="1" parent="tWrkvSslU7-2X-qWNk3D-1">
          <mxGeometry x="255" y="165" width="150" height="50" as="geometry" />
        </mxCell>
        <mxCell id="5_4g8bxJziUNSMfznbgL-36" style="edgeStyle=orthogonalEdgeStyle;rounded=0;orthogonalLoop=1;jettySize=auto;html=1;exitX=0.25;exitY=0.5;exitDx=0;exitDy=0;exitPerimeter=0;" edge="1" parent="tWrkvSslU7-2X-qWNk3D-1" source="5_4g8bxJziUNSMfznbgL-38">
          <mxGeometry relative="1" as="geometry">
            <mxPoint x="378" y="445" as="targetPoint" />
            <Array as="points">
              <mxPoint x="562" y="420" />
              <mxPoint x="378" y="420" />
              <mxPoint x="378" y="445" />
            </Array>
          </mxGeometry>
        </mxCell>
        <mxCell id="5_4g8bxJziUNSMfznbgL-39" style="edgeStyle=orthogonalEdgeStyle;rounded=0;orthogonalLoop=1;jettySize=auto;html=1;exitX=0.5;exitY=1;exitDx=0;exitDy=0;entryX=0.553;entryY=0.371;entryDx=0;entryDy=0;entryPerimeter=0;" edge="1" parent="tWrkvSslU7-2X-qWNk3D-1" source="5_4g8bxJziUNSMfznbgL-32" target="5_4g8bxJziUNSMfznbgL-38">
          <mxGeometry relative="1" as="geometry" />
        </mxCell>
        <mxCell id="5_4g8bxJziUNSMfznbgL-32" value="solofabric.sh" style="html=1;" vertex="1" parent="tWrkvSslU7-2X-qWNk3D-1">
          <mxGeometry x="540" y="310" width="150" height="50" as="geometry" />
        </mxCell>
        <mxCell id="5_4g8bxJziUNSMfznbgL-33" value="macrodriver.sh" style="html=1;" vertex="1" parent="tWrkvSslU7-2X-qWNk3D-1">
          <mxGeometry x="260" y="480" width="150" height="50" as="geometry" />
        </mxCell>
        <mxCell id="5_4g8bxJziUNSMfznbgL-41" style="edgeStyle=orthogonalEdgeStyle;rounded=0;orthogonalLoop=1;jettySize=auto;html=1;exitX=0.75;exitY=0.5;exitDx=0;exitDy=0;exitPerimeter=0;entryX=0.505;entryY=0.371;entryDx=0;entryDy=0;entryPerimeter=0;" edge="1" parent="tWrkvSslU7-2X-qWNk3D-1" source="5_4g8bxJziUNSMfznbgL-38" target="5_4g8bxJziUNSMfznbgL-15">
          <mxGeometry relative="1" as="geometry" />
        </mxCell>
        <mxCell id="5_4g8bxJziUNSMfznbgL-38" value="" style="shape=line;html=1;strokeWidth=6;strokeColor=#ff0000;" vertex="1" parent="tWrkvSslU7-2X-qWNk3D-1">
          <mxGeometry x="520" y="390" width="170" height="10" as="geometry" />
        </mxCell>
        <mxCell id="5_4g8bxJziUNSMfznbgL-53" style="edgeStyle=orthogonalEdgeStyle;rounded=0;orthogonalLoop=1;jettySize=auto;html=1;exitX=0.25;exitY=0.5;exitDx=0;exitDy=0;exitPerimeter=0;entryX=0.5;entryY=0;entryDx=0;entryDy=0;" edge="1" parent="tWrkvSslU7-2X-qWNk3D-1" source="5_4g8bxJziUNSMfznbgL-43" target="5_4g8bxJziUNSMfznbgL-45">
          <mxGeometry relative="1" as="geometry" />
        </mxCell>
        <mxCell id="5_4g8bxJziUNSMfznbgL-55" style="edgeStyle=orthogonalEdgeStyle;rounded=0;orthogonalLoop=1;jettySize=auto;html=1;exitX=0.75;exitY=0.5;exitDx=0;exitDy=0;exitPerimeter=0;entryX=0.5;entryY=0;entryDx=0;entryDy=0;" edge="1" parent="tWrkvSslU7-2X-qWNk3D-1" source="5_4g8bxJziUNSMfznbgL-43" target="5_4g8bxJziUNSMfznbgL-47">
          <mxGeometry relative="1" as="geometry" />
        </mxCell>
        <mxCell id="5_4g8bxJziUNSMfznbgL-43" value="" style="shape=line;html=1;strokeWidth=6;strokeColor=#ff0000;" vertex="1" parent="tWrkvSslU7-2X-qWNk3D-1">
          <mxGeometry x="250" y="670" width="170" height="10" as="geometry" />
        </mxCell>
        <mxCell id="5_4g8bxJziUNSMfznbgL-56" style="edgeStyle=orthogonalEdgeStyle;rounded=0;orthogonalLoop=1;jettySize=auto;html=1;exitX=0.5;exitY=1;exitDx=0;exitDy=0;entryX=0.25;entryY=0.5;entryDx=0;entryDy=0;entryPerimeter=0;" edge="1" parent="tWrkvSslU7-2X-qWNk3D-1" source="5_4g8bxJziUNSMfznbgL-45" target="5_4g8bxJziUNSMfznbgL-24">
          <mxGeometry relative="1" as="geometry">
            <mxPoint x="298" y="800" as="targetPoint" />
          </mxGeometry>
        </mxCell>
        <mxCell id="5_4g8bxJziUNSMfznbgL-45" value="YCSB" style="shape=hexagon;perimeter=hexagonPerimeter2;whiteSpace=wrap;html=1;fixedSize=1;fontFamily=Helvetica;fontSize=12;align=center;strokeColor=#b85450;fillColor=#f8cecc;" vertex="1" parent="tWrkvSslU7-2X-qWNk3D-1">
          <mxGeometry x="175" y="720" width="80" height="40" as="geometry" />
        </mxCell>
        <mxCell id="5_4g8bxJziUNSMfznbgL-58" style="edgeStyle=orthogonalEdgeStyle;rounded=0;orthogonalLoop=1;jettySize=auto;html=1;exitX=0.5;exitY=1;exitDx=0;exitDy=0;entryX=0.75;entryY=0.5;entryDx=0;entryDy=0;entryPerimeter=0;" edge="1" parent="tWrkvSslU7-2X-qWNk3D-1" source="5_4g8bxJziUNSMfznbgL-47" target="5_4g8bxJziUNSMfznbgL-24">
          <mxGeometry relative="1" as="geometry" />
        </mxCell>
        <mxCell id="5_4g8bxJziUNSMfznbgL-47" value="DoNothing" style="shape=hexagon;perimeter=hexagonPerimeter2;whiteSpace=wrap;html=1;fixedSize=1;fontFamily=Helvetica;fontSize=12;align=center;strokeColor=#d6b656;fillColor=#fff2cc;" vertex="1" parent="tWrkvSslU7-2X-qWNk3D-1">
          <mxGeometry x="405" y="720" width="90" height="40" as="geometry" />
        </mxCell>
        <mxCell id="5_4g8bxJziUNSMfznbgL-57" style="edgeStyle=orthogonalEdgeStyle;rounded=0;orthogonalLoop=1;jettySize=auto;html=1;exitX=0.5;exitY=1;exitDx=0;exitDy=0;entryX=0.5;entryY=0.395;entryDx=0;entryDy=0;entryPerimeter=0;" edge="1" parent="tWrkvSslU7-2X-qWNk3D-1" source="5_4g8bxJziUNSMfznbgL-48" target="5_4g8bxJziUNSMfznbgL-24">
          <mxGeometry relative="1" as="geometry">
            <mxPoint x="336" y="816" as="targetPoint" />
          </mxGeometry>
        </mxCell>
        <mxCell id="5_4g8bxJziUNSMfznbgL-48" value="SmallBank" style="shape=hexagon;perimeter=hexagonPerimeter2;whiteSpace=wrap;html=1;fixedSize=1;fontFamily=Helvetica;fontSize=12;align=center;strokeColor=#b85450;fillColor=#f8cecc;" vertex="1" parent="tWrkvSslU7-2X-qWNk3D-1">
          <mxGeometry x="290" y="720" width="90" height="40" as="geometry" />
        </mxCell>
        <mxCell id="5_4g8bxJziUNSMfznbgL-54" style="edgeStyle=orthogonalEdgeStyle;rounded=0;orthogonalLoop=1;jettySize=auto;html=1;entryX=0.5;entryY=0;entryDx=0;entryDy=0;" edge="1" parent="tWrkvSslU7-2X-qWNk3D-1" target="5_4g8bxJziUNSMfznbgL-48">
          <mxGeometry relative="1" as="geometry">
            <mxPoint x="335" y="677" as="sourcePoint" />
            <mxPoint x="225" y="720" as="targetPoint" />
          </mxGeometry>
        </mxCell>
        <mxCell id="5_4g8bxJziUNSMfznbgL-61" style="edgeStyle=orthogonalEdgeStyle;rounded=0;orthogonalLoop=1;jettySize=auto;html=1;exitX=0.25;exitY=0.5;exitDx=0;exitDy=0;exitPerimeter=0;entryX=0.5;entryY=0;entryDx=0;entryDy=0;" edge="1" parent="tWrkvSslU7-2X-qWNk3D-1" source="5_4g8bxJziUNSMfznbgL-59" target="5_4g8bxJziUNSMfznbgL-2">
          <mxGeometry relative="1" as="geometry">
            <mxPoint x="80" y="270" as="targetPoint" />
            <Array as="points">
              <mxPoint x="293" y="970" />
              <mxPoint x="80" y="970" />
              <mxPoint x="80" y="140" />
              <mxPoint x="500" y="140" />
            </Array>
          </mxGeometry>
        </mxCell>
        <mxCell id="5_4g8bxJziUNSMfznbgL-62" style="edgeStyle=orthogonalEdgeStyle;rounded=0;orthogonalLoop=1;jettySize=auto;html=1;exitX=0.75;exitY=0.5;exitDx=0;exitDy=0;exitPerimeter=0;entryX=0.5;entryY=0;entryDx=0;entryDy=0;" edge="1" parent="tWrkvSslU7-2X-qWNk3D-1" source="5_4g8bxJziUNSMfznbgL-59" target="5_4g8bxJziUNSMfznbgL-25">
          <mxGeometry relative="1" as="geometry" />
        </mxCell>
        <mxCell id="5_4g8bxJziUNSMfznbgL-59" value="" style="shape=line;html=1;strokeWidth=6;strokeColor=#ff0000;" vertex="1" parent="tWrkvSslU7-2X-qWNk3D-1">
          <mxGeometry x="250" y="890" width="170" height="10" as="geometry" />
        </mxCell>
        <mxCell id="5_4g8bxJziUNSMfznbgL-64" value="" style="shape=line;html=1;strokeWidth=6;strokeColor=#ff0000;" vertex="1" parent="tWrkvSslU7-2X-qWNk3D-1">
          <mxGeometry x="415" y="250" width="170" height="10" as="geometry" />
        </mxCell>
      </root>
    </mxGraphModel>
  </diagram>
</mxfile>
